# xmcd
#
# Track frame offsets: 
#        150
#        14220
#        25648
#        38755
#        47487
#        58966
#        70538
#        81976
#        94115
#        106067
#        118122
#        130312
#        142015
#        153226
#        162367
#        171477
#        183329
#        196008
#        207082
#        219105
#        232861
#        242932
#        258643
#        274918
#        284443
#        297697
#        309130
#        322319
#        334999
#        347843
#        357672
#        369376
#
# Disc length: 5076 seconds
#
# Revision: 0
# Processed by: cddbd v1.5.2PL0 Copyright (c) Steve Scherf et al.
# Submitted via: ExactAudioCopy v0.99pb4
#
DISCID=f513d220
DTITLE=Bill Anderson - The First Ten Years CD 1
DYEAR=2011
DGENRE=Country
TTITLE0=Empty Rooms 1957
TTITLE1=Take Me  1957
TTITLE2=City Lights  1957
TTITLE3=No Song To Sing  1957
TTITLE4=That's What It Likes To Be Lonesome (single 1958)
TTITLE5=The Thrill Of My Life 1958
TTITLE6=Ninety-Nine  1959
TTITLE7=Back Where I Started From  1959
TTITLE8=It's Not The End Of Everything  1959
TTITLE9=Dead Or Alive  1959
TTITLE10=No Man's Land  1960
TTITLE11=The Tip Of My Fingers  1960
TTITLE12=Walk Out Backwards  1960
TTITLE13=Best Of Strangers  1960
TTITLE14=Flowing Waters And Shifting Sands 1961
TTITLE15=Goodbye Cruel World  1961
TTITLE16=Po' Folks  1961
TTITLE17=As Long As I Live  1961
TTITLE18=It Takes A Worried Man  1961
TTITLE19=City Lights  1961
TTITLE20=Columbus Stockade Blues  1961
TTITLE21=Mama Sang A Song  1961
TTITLE22=Wedding Bells  1961
TTITLE23=Yonder Comes A Sucker  1961
TTITLE24=Blue Eyes Crying In The Rain  1961
TTITLE25=On And On And On  1961
TTITLE26=Get A Little Dirt On Your Hands  1962
TTITLE27=Down Came The Rain  1962
TTITLE28=Still  1963
TTITLE29=You Made It Easy  1963
TTITLE30=I Wish It Was Mine  1963
TTITLE31=That's What It's Like To Be Lonesome  1965
EXTD=
EXTT0=
EXTT1=
EXTT2=
EXTT3=
EXTT4=
EXTT5=
EXTT6=
EXTT7=
EXTT8=
EXTT9=
EXTT10=
EXTT11=
EXTT12=
EXTT13=
EXTT14=
EXTT15=
EXTT16=
EXTT17=
EXTT18=
EXTT19=
EXTT20=
EXTT21=
EXTT22=
EXTT23=
EXTT24=
EXTT25=
EXTT26=
EXTT27=
EXTT28=
EXTT29=
EXTT30=
EXTT31=
PLAYORDER=
